<svg height="472pt" viewBox="-3 0 471 472" width="472pt" xmlns="http://www.w3.org/2000/svg"><g fill="#ffeb99"><path d="m144.5 96c48.601562 0 88 39.398438 88 88h16c4.417969 0 8-3.582031 8-8v-128c0-4.417969-3.582031-8-8-8h-208c-4.417969 0-8 3.582031-8 8v128c0 4.417969 3.582031 8 8 8h16c0-48.601562 39.398438-88 88-88zm0 0"/><path d="m256.5 48v128c0 4.417969-3.582031 8-8 8h-16c.039062-30.5625-15.804688-58.949219-41.839844-74.960938 21.695313-19.285156 39.25-42.773437 51.601563-69.039062h6.238281c4.417969 0 8 3.582031 8 8zm0 0"/><path d="m48.5 184 8.398438-8.398438c-.238282 2.796876-.398438 5.597657-.398438 8.398438zm0 0"/></g><path d="m208.5 280c-.011719 34.304688-27.066406 62.496094-61.339844 63.921875-34.277344 1.425781-63.578125-24.425781-66.4375-58.609375s21.742188-64.542969 55.777344-68.832031c5.3125-.640625 10.6875-.640625 16 0 32.007812 4.03125 56.011719 31.257812 56 63.519531zm0 0" fill="#e6e7e8"/><path d="m144.5 96c-48.601562 0-88 39.398438-88 88h176c0-48.601562-39.398438-88-88-88zm0 72c-4.417969 0-8-3.582031-8-8 0-4.414062 8-40 8-40s8 35.585938 8 40c0 4.417969-3.582031 8-8 8zm0 0" fill="#ffc477"/><path d="m136.5 160c0 4.417969 3.582031 8 8 8s8-3.582031 8-8c0-4.414062-8-40-8-40s-8 35.585938-8 40zm0 0" fill="#ff5023"/><path d="m384.5 96c-4.417969 0-8-3.582031-8-8v-32c0-4.417969 3.582031-8 8-8s8 3.582031 8 8v32c0 4.417969-3.582031 8-8 8zm0 0" fill="#787680"/><path d="m448.5 88c-4.417969 0-8-3.582031-8-8v-32c0-4.417969 3.582031-8 8-8s8 3.582031 8 8v32c0 4.417969-3.582031 8-8 8zm0 0" fill="#787680"/><path d="m152.5 216.480469v31.519531c0 4.417969-3.582031 8-8 8s-8-3.582031-8-8v-31.519531c5.3125-.640625 10.6875-.640625 16 0zm0 0" fill="#787680"/><path d="m368.5 448h-128c-13.253906 0-24-10.746094-24-24v-40c0-4.417969 3.582031-8 8-8s8 3.582031 8 8v40c0 4.417969 3.582031 8 8 8h128c4.417969 0 8-3.582031 8-8v-128c0-4.417969 3.582031-8 8-8s8 3.582031 8 8v128c0 13.253906-10.746094 24-24 24zm0 0" fill="#ff5023"/><path d="m416.5 472h-192c-22.082031-.027344-39.972656-17.917969-40-40v-48c0-4.417969 3.582031-8 8-8s8 3.582031 8 8v48c0 13.253906 10.746094 24 24 24h192c13.253906 0 24-10.746094 24-24v-144c0-4.417969 3.582031-8 8-8s8 3.582031 8 8v144c-.027344 22.082031-17.917969 39.972656-40 40zm0 0" fill="#ffde55"/><path d="m400.5 288v-168h-32v168c0 4.417969 3.582031 8 8 8h16c4.417969 0 8-3.582031 8-8zm0 0" fill="#ff7956"/><path d="m392.5 88h-16l-8 32h32zm0 0" fill="#ff6243"/><path d="m432.5 280c0 4.417969 3.582031 8 8 8h16c4.417969 0 8-3.582031 8-8v-168h-32zm0 0" fill="#ffc477"/><path d="m448.5 80h-8l-8 32h32l-8-32zm0 0" fill="#ffb655"/><path d="m256.5 384c17.671875 0 32-14.328125 32-32v-320c0-17.671875-14.328125-32-32-32h-224c-17.671875 0-32 14.328125-32 32v320c0 17.671875 14.328125 32 32 32zm-216-200c-4.417969 0-8-3.582031-8-8v-128c0-4.417969 3.582031-8 8-8h208c4.417969 0 8 3.582031 8 8v128c0 4.417969-3.582031 8-8 8zm104 160c-35.347656 0-64-28.652344-64-64s28.652344-64 64-64 64 28.652344 64 64-28.652344 64-64 64zm0 0" fill="#ff7956"/><path d="m184.5 384h16v16h-16zm0 0" fill="#ffd422"/><path d="m216.5 384h16v16h-16zm0 0" fill="#cd2a00"/><path d="m376.5 296h16v16h-16zm0 0" fill="#cd2a00"/><path d="m440.5 288h16v16h-16zm0 0" fill="#ffd422"/><path d="m256.5 48v128c0 4.417969-3.582031 8-8 8h-16c.039062-30.5625-15.804688-58.949219-41.839844-74.960938 21.695313-19.285156 39.25-42.773437 51.601563-69.039062h6.238281c4.417969 0 8 3.582031 8 8zm0 0" fill="#ffde55"/></svg>